<svg xmlns="http://www.w3.org/2000/svg" width="108.4" height="40.6"><style type="text/css">.st0{fill:#FFFFFF;} .st1{fill:#FBFBFB;} .st2{fill:#DA282D;}</style><path d="M104.5 8.6H33.1c-3-3.4-7.4-5.5-12.3-5.5-9.1 0-16.6 7.4-16.6 16.6s7.4 16.6 16.6 16.6c4.2 0 8.1-1.6 11-4.2h72.8V8.6z" class="st0"/><g id="layer1"><path d="M17.7 40.5c-5.3-.7-10-3.3-13.3-7.4-1.3-1.6-2.6-4-3.3-5.9-.4-1-.8-2.7-1-3.9-.2-1.3-.2-4.8 0-6.1.3-2.1.9-4 1.9-6C4 7.2 7.2 4 11.2 2c2-1 3.9-1.6 6-1.9 1.3-.2 4.8-.2 6.1 0 2.1.3 4 .9 6 1.9 5 2.4 8.7 6.8 10.4 12.1 1 3.3 1.2 7 .5 10.4-1.3 6.1-5.3 11.3-10.9 14-.7.3-1.6.7-2.1.9-1 .4-2.8.8-3.9 1-1 .2-4.5.3-5.6.1zm4.8-4.5c1.6-.2 3.1-.7 4.6-1.4 4.7-2.3 8-6.7 8.8-12 .1-.9.2-3.3.1-4l-.1-.4-8 8c-4.4 4.4-8.1 8-8.2 8.1-.3.2-1 .2-1.4 0-.3-.2-10.7-10.5-10.8-10.8-.1-.3-.1-.9 0-1.2.1-.3 1.8-2 2.2-2.1.3-.1.8-.1 1.2 0 .2.1 1.2 1 2.9 2.7 1.4 1.4 3.2 3.2 4 3.9L19 28l7.4-7.4c4.1-4.1 7.5-7.4 7.6-7.5l.2-.1-.2-.4c-2.4-4.2-6.6-7.1-11.5-7.9-1.1-.2-3.3-.2-4.4 0-5.3.8-9.7 4.1-12 8.8-1.1 2.3-1.6 4.3-1.6 6.9S5 25 6.1 27.3c2.5 5.1 7.5 8.5 13.3 8.9.6 0 2.2 0 3.1-.2zM8.8 19c-.7-.3-1-.9-.6-1.6.2-.2.5-.4.9-.4 1 .1 1.5.7 1.1 1.5-.1.5-.7.7-1.4.5zm1.1-.7c.1-.1.1-.2 0-.3-.2-.3-1-.4-1.2-.2-.1.1-.1.2-.1.3 0 .2.5.5.9.5.2-.1.3-.1.4-.3zM9.7 16.7c-.5-.3-.9-.5-1-.5 0 0 0-.2 0-.3.1-.2.1-.2.5-.2.2 0 .5 0 .7 0l.4-.1-.5-.3c-.2-.2-.5-.3-.5-.3-.1-.1.1-.5.2-.5s2 1 2 1-.1.1-.1.3c-.1.2-.1.2-.6.2-.3 0-.6 0-.7.1-.2 0-.2.1.3.3.3.1.5.3.5.3s-.2.5-.3.5c0 0-.4-.2-.9-.5zM10.9 14.6c-.4-.3-.8-.6-.8-.7-.1-.1.1-.5.3-.5 0 0 .4.2.8.5l.7.5.3-.3c.3-.4.3-.4.6-.2.1.1.1.1-.1.4-.1.2-.3.4-.5.6-.1.2-.3.3-.3.3-.2 0-.6-.3-1-.6zM12.1 13.1c-.4-.4-.7-.8-.7-.8s.1-.2.2-.2l.2-.2.8.8.8.8-.2.2c-.1.1-.2.2-.3.2 0 0-.4-.4-.8-.8zM12.9 12.4c-.8-1.1-.8-1-.5-1.2l.2-.2.6.3c.3.2.6.3.6.3s-.1-.2-.3-.5l-.4-.5.2-.2c.1-.1.2-.1.3-.1.1 0 .4.5 1.2 1.5l.2.3-.2.2-.2.2-.3-.1c-.2-.1-.5-.2-.7-.3l-.4-.2.2.3c.1.1.3.4.4.5l.2.3-.2.2c-.1.1-.2.2-.2.2-.1-.2-.4-.5-.7-1zM27.9 13.1l-.2-.2.1-.7c.1-.4.1-.7.1-.7s-.2.2-.4.5c-.4.5-.5.5-.7.2-.1-.1-.2-.1.7-1.3.3-.3.5-.6.5-.6s.1.1.3.2c.2.2.2.1.1 1.3v.3l.4-.5.4-.5.2.2c.1.1.2.2.2.3-.1.2-1.3 1.7-1.3 1.7-.2-.1-.3-.1-.4-.2zM14.8 10.9c-.3-.5-.5-1-.5-1 .1-.1 1.3-.7 1.4-.7 0 0 .1.1.2.2.1.2.1.2-.3.4s-.5.3-.3.5c.1.1.1.1.4-.1.2-.1.4-.2.4-.2s.1.1.1.2c.1.2.1.2-.3.3-.4.2-.4.3-.2.5.1.1.1.1.5-.1s.4-.2.5-.1c.1.1.1.2.1.2 0 .1-1.2.7-1.4.7-.1.2-.3-.2-.6-.8zM25.5 11.5l-.3-.1.1-1.1c.1-.6.1-1.1.1-1.2 0-.1 0-.1.3 0 .2.1.3.2.3.2s-.1.4-.1.8l-.1.7.2-.2c.1-.1.3-.4.5-.6l.3-.4.3.1c.1.1.3.2.3.2s-.4.4-.8.9l-.8.8-.3-.1zM17 11.1c-.1-.1-.1-.4.1-.5.3-.2.6.2.3.4-.2.2-.3.2-.4.1zM24 11c-.2-.1-.1-.5.1-.5.3-.1.5.2.3.5-.2.1-.2.1-.4 0zM23 10.7c-.1 0-.3-.1-.3-.1s-.3-2.3-.3-2.4c0 0 .6.2.6.3 0 .1 0 .4.1.8v.7l.3-.7c.2-.4.4-.7.4-.7.1-.1.6.1.6.2s-1.1 2-1.1 2c0-.1-.2-.1-.3-.1zM18 10.6c-.3-.1-.5-.6-.5-1-.1-.8.3-1.2 1-1.2.3 0 .4 0 .6.2.3.3.3.4.1.4-.2.1-.4.1-.5 0-.1-.1-.4-.2-.5 0-.2.2 0 1.2.3 1.3.1 0 .2 0 .3 0 .1 0 .2-.1.2-.2s-.1-.2-.2-.1c-.2 0-.2 0-.2-.2s.1-.2.5-.3l.4-.1.1.4c.1.6.1.6-.3.8-.4.1-1 .2-1.3 0zM20.4 10.4c-.6-.4-.6-1.5-.1-2 .6-.5 1.4-.2 1.6.6.1.4 0 1-.3 1.2-.3.4-.9.4-1.2.2zm.7-.4c.3-.1.3-1.1.1-1.3-.2-.1-.4-.1-.6.2-.1.3-.1.9.1 1.1.2.1.2.1.4 0zM51.5 31.8c-.2-.2-.2-.3-.1-.5s.4-.2.6-.1c.2.1.1.5 0 .6-.2.2-.3.2-.5 0zM50.9 30.6c-.8-.4-1.1-1.2-1.1-2.5 0-.9.2-1.4.6-1.8.7-.7 1.9-.8 2.6-.1.5.5.7.9.7 1.9 0 1-.1 1.5-.4 2-.5.7-1.6.9-2.4.5zm1.5-.5c.5-.3.6-.7.6-1.8 0-.9 0-1-.2-1.3-.3-.5-.9-.8-1.5-.6-.6.2-.9.9-.9 2 0 .9.2 1.4.6 1.6.5.3 1.1.3 1.4.1zM57.4 30.7c-.4-.2-.7-.5-.9-.9-.2-.3-.2-.5-.2-1.3 0-1.2.1-1.6.6-2.2.3-.3.5-.4.8-.5 1.1-.3 2.2.2 2.4 1.3l.1.3h-.3c-.3 0-.3 0-.5-.4-.2-.5-.5-.7-1-.7s-.8.2-1.1.6c-.2.3-.2.5-.2 1.1 0 .9.1 1.5.4 1.8.6.7 1.7.5 1.9-.4.1-.3.1-.3.4-.3h.2v.3c-.1.3-.3.8-.5 1-.5.4-1.5.6-2.1.3zM61.8 30.6c-.8-.4-1.1-1.2-1.1-2.5 0-.9.2-1.4.6-1.8.7-.7 1.9-.8 2.6-.1.5.5.7.9.7 1.9 0 1-.1 1.5-.4 2-.5.7-1.6.9-2.4.5zm1.5-.5c.5-.3.6-.7.6-1.8 0-.9 0-1-.2-1.3-.3-.5-.9-.8-1.5-.6-.6.2-.9.9-.9 2 0 .9.2 1.4.6 1.6.5.3 1.1.3 1.4.1zM71.6 30.7c-.4-.2-.9-.6-1.1-1-.2-.3-.2-.6-.2-1.2-.1-1.3.2-2.1 1-2.5.3-.2.4-.2 1-.2.9 0 1.4.3 1.7 1 .2.5.2.5-.2.5-.3 0-.3 0-.5-.3-.2-.4-.5-.6-1-.6-.8 0-1.2.5-1.3 1.7 0 .9.1 1.4.4 1.8.4.5 1.1.6 1.7.3.2-.1.2-.1.2-.6v-.5h-1v-.6h1.8v.9c0 1.1 0 1.1-.6 1.4-.4 0-1.5.1-1.9-.1zM86.6 30.7c-.4-.1-.7-.4-.9-.8-.1-.3-.1-.5-.1-2.2v-1.9h.6v1.9c0 1.8 0 1.9.2 2.1.3.4 1 .6 1.5.3.4-.2.4-.4.4-2.5v-1.8h.6v.3c0 .3 0 .3.1.3.2 0 .5-.3.5-.7 0-.3.1-.3.3-.3.3 0 .3 0 .3.3 0 .5-.3.9-.6 1.1-.2.1-.4.2-.5.2-.1 0-.1.1-.1 1.3 0 1 0 1.3-.1 1.6-.2.4-.5.7-.9.8-.1.2-.9.2-1.3 0zM91.4 30.7c-.4-.2-.8-.6-1-1-.2-.3-.2-.5-.2-1.4 0-1.1.1-1.4.5-1.9.6-.7 1.7-.8 2.5-.3.3.2.3.2.5.1.1-.1.2-.2.3-.5.1-.3.1-.3.4-.3h.3l-.1.3c-.1.5-.2.7-.5.9-.1.1-.3.2-.3.2s.1.2.1.4c.1.3.1.6.1 1.3 0 .8-.1 1-.2 1.3-.2.5-.7.8-1.1 1-.3.1-1 0-1.3-.1zM93 30c.4-.4.5-.7.4-1.7 0-1-.1-1.3-.6-1.6-.2-.1-.3-.2-.7-.2-.5 0-.8.2-1.1.7-.2.3-.2.4-.2 1.2 0 .8 0 .9.2 1.3.3.5.6.7 1.1.7.6-.2.7-.3.9-.4zM101.2 30.7c-.4-.2-.9-.6-1.1-1-.2-.3-.2-.6-.2-1.2-.1-1.3.2-2.1 1-2.5.3-.2.4-.2 1-.2.9 0 1.4.3 1.7 1 .2.5.2.5-.2.5-.3 0-.3 0-.5-.3-.2-.4-.5-.6-1-.6-.8 0-1.2.5-1.3 1.7 0 .9.1 1.4.4 1.8.4.5 1.1.6 1.7.3.3-.2.3-.2.3-.7V29h-1v-.6h1.8v.9c0 1.1 0 1.1-.6 1.4-.5.1-1.6.2-2 0zM45.7 28.3v-2.5h1.1c.9 0 1.2.1 1.4.2.4.2.6.5.6 1.1 0 .5-.1.8-.5 1-.1.1-.2.1-.1.1.2 0 .6.4.7.8.2.6-.1 1.3-.7 1.6-.3.2-.5.2-1.5.2h-1.1v-2.5zm2.4 1.7c.2-.1.4-.6.3-.8 0-.1 0-.2-.1-.3-.1-.3-.4-.4-1.2-.4h-.7v1.8h.7c.6-.1.8-.2 1-.3zm-.2-2.2c.5-.3.5-1 0-1.3-.1 0-.5-.1-.8-.1h-.7v1.4h.6c.4.1.7.1.9 0zM65.6 28.3v-2.5h.8l1.2 1.8 1.2 1.8v-3.6h.5v5h-.8L67.3 29l-1.2-1.8v3.6h-.6v-2.5zM77.8 28.6v-2.2h-1.6v-.6H80v.6h-1.6v4.4h-.6v-2.2zM80.8 28.3v-2.5h.6v2h2.4v-2h.6v5h-.6v-2.2h-2.4v2.2h-.6v-2.5zM95.1 28.3v-2.5h.8l1.2 1.8 1.2 1.8v-3.6h.6v5h-.8L97 28.9l-1.2-1.8v3.6h-.6v-2.4zM50.8 25.4c0-.1.2-.3.4-.5.5-.5.7-.5 1.2.1.2.3.4.5.4.5s-.1 0-.2 0c-.2 0-.3-.1-.5-.3l-.3-.2-.2.3c-.2.2-.3.3-.5.3-.3-.1-.3-.1-.3-.2zM61.7 25.4c0-.1.2-.3.4-.5.5-.5.7-.5 1.2.1.2.3.4.5.4.5s-.1 0-.2 0c-.2 0-.3-.1-.5-.3l-.3-.2-.2.3c-.2.2-.3.3-.5.3-.3-.1-.4-.1-.3-.2zM45.7 23.2V23h57.8v.6H45.7v-.4zM83.8 20.9c-.7-.2-1.1-.6-1.4-1.3-.2-.4-.2-.4-.2-3.6 0-3 0-3.2.1-3.6.2-.5.6-1 1.1-1.2.4-.2.5-.2 1.4-.2.9 0 1.1 0 1.4.2.5.2.8.6 1 .9.2.4.3 1.1.3 1.8v.5h-1.8v-.8c-.1-.9-.1-1-.4-1.1-.5-.2-.9-.1-1.2.1V16c0 2.1 0 3.1.1 3.2.1.2.4.4.9.4.7 0 .8-.2.8-1.6v-1.1h-.8v-1.4h2.6v1.9c0 2.1-.1 2.5-.7 3-.5.5-.9.6-2 .7-.6-.1-1-.1-1.2-.2zM45.6 18.8v-2.1H45v-1.2h.6v-4.4h1.8c2.2 0 2.6.1 3.2.7.6.6.6.7.6 4.2s0 3.6-.6 4.2c-.6.6-1 .7-3.2.7h-1.8v-2.1zm3.4.6c.1-.1.2-.2.2-.3.1-.3.1-5.9 0-6.1-.1-.3-.3-.4-1.1-.4h-.7v2.9h1.1v1.2h-1v2.8h.7c.4 0 .8 0 .8-.1zM51.9 20.9s1.6-8.6 1.8-9.4l.1-.4h2.8l.9 4.7c.5 2.6.9 4.8.9 4.9 0 .2 0 .2-.9.2s-.9 0-1-.2c0-.1-.1-.5-.2-.9l-.1-.7h-2.3l-.1.9-.2.9h-.9c-.4.1-.8 0-.8 0zm3.9-3.2s-.2-1.1-.4-2.4L55 13l-.4 2.3c-.2 1.2-.4 2.3-.4 2.4 0 .1.2.1.8.1.5-.1.8-.1.8-.1zM61.7 18.8v-2.1h-.6v-1.2h.6v-4.4h1.8c2.2 0 2.6.1 3.2.7.6.6.6.7.6 4.2s0 3.6-.6 4.2c-.6.6-1 .7-3.2.7h-1.8v-2.1zm3.5.6c.1-.1.2-.2.2-.3.1-.3.1-5.9 0-6.1-.1-.3-.3-.4-1.1-.4h-.7v2.9h1v1.2h-1v2.8h.7c.4 0 .8 0 .9-.1zM68 20.8c0-.1.4-2.2.9-4.7s.9-4.6.9-4.7c0-.2.1-.2 1.4-.2h1.4l.9 4.8c.5 2.6.9 4.8.9 4.9 0 .1-.2.1-.9.1-.8 0-.9 0-1-.1 0-.1-.3-1.5-.3-1.6 0 0-.5 0-1.1 0H70l-.2.9-.1.8h-1.8l.1-.2zm3.9-3.1c0-.1-.7-4.4-.8-4.5 0-.1-.8 4.5-.8 4.6 0 0 .4.1.8.1.7-.1.8-.1.8-.2zM75.2 16.1v-4.9h2.4l.9 2.8.9 2.8v-5.6H81V21h-2l-1-3.4-1-3.4V21h-1.6v-4.9zM91.4 16.1v-4.9h2v4l1.1-2 1.1-2h1.8l-.1.2c-.1.1-.6 1.1-1.2 2.1-.6 1.1-1.1 2-1.1 2.1 0 0 .6 1.3 1.2 2.7.7 1.5 1.2 2.7 1.2 2.7s-.4 0-1 0h-1l-.7-2-.9-1.9-.2.4-.2.4V21h-2v-4.9zM100 19.3v-1.7l-1.1-3.2c-.6-1.8-1.1-3.2-1.1-3.2s.4-.1 1-.1h1l.4 1.2c.2.7.5 1.6.7 2.2.2.5.3.9.3.9s.3-1 .7-2.1.7-2.1.7-2.1.4 0 .9 0h.9l-1.1 3.2-1.1 3.2V21h-2v-1.7zM53.4 10.5c-.5-.3-.5-.3-.3-.7.4-.6 1.1-.8 2-.4.7.2.9.3 1.2 0l.2-.2.5.2c.2.1.4.3.4.3 0 .2-.4.7-.7.8-.5.2-.9.2-1.5 0-.7-.3-1-.3-1.3 0-.1.1-.2.2-.2.2s-.1-.1-.3-.2zM70.2 10.6c-.4-.2-.7-.5-.8-.9-.1-.5-.1-.6.5-.6h.6l.1.3c.1.3.5.5 1 .3.3-.1.3-.1.4-.3l.1-.3h.6c.5 0 .6 0 .6.2 0 .6-.5 1.2-1.1 1.4-.7.1-1.7 0-2-.1zM100.1 10.7s.2-.4.5-.8l.5-.7h1.8l-.4.3c-.2.2-.6.5-.9.8l-.5.4h-.6c-.2 0-.4 0-.4 0z" class="st1"/></g><path d="M19.3 36.2c-5.8-.4-10.8-3.8-13.3-8.9-.7-1.6-1.2-3-1.4-4.7-.2-1.1-.2-3.3 0-4.4.8-5.3 4.1-9.7 8.8-12 2.3-1.1 4.3-1.6 6.9-1.6s4.6.5 6.9 1.6c2.9 1.4 5.3 3.7 6.9 6.4l.2.4-.2.1c-.1 0-3.5 3.4-7.6 7.5L19 28l-1.3-1.3c-.7-.7-2.5-2.5-4-3.9-1.8-1.7-2.7-2.6-2.9-2.7-.4-.1-.8-.1-1.2 0-.4.2-2 1.8-2.2 2.1-.1.4-.1.9 0 1.2.2.4 10.6 10.7 10.9 10.9.3.2 1 .2 1.4 0 .1-.1 3.8-3.7 8.2-8.1l8-8 .1.4c.1.7.1 3.1-.1 4-.8 5.3-4.1 9.7-8.8 12-1.6.7-3 1.2-4.6 1.4-.9.2-2.5.2-3.2.2zM9.9 19c.4-.3.6-.9.3-1.4-.2-.5-1.2-.7-1.6-.5-.4.2-.6.7-.5 1.1.2.7 1.2 1.1 1.8.8zm.9-2.1c.1-.1.1-.2.1-.3 0 0-.2-.1-.5-.3-.5-.3-.5-.3-.3-.3.1 0 .4-.1.7-.1.5 0 .5 0 .6-.2.1-.1.1-.2.1-.3 0 0-1.9-1-2-1-.1 0-.3.4-.2.5 0 0 .3.2.5.3l.5.3-.3.1c-.2 0-.5 0-.7 0-.3 0-.4 0-.5.2-.1.1-.1.3 0 .3.1.1 1.8 1 1.9 1 0 .1.1 0 .1-.2zm1.2-2c.1-.2.3-.4.5-.6.2-.3.2-.3.1-.4-.2-.2-.3-.1-.6.2l-.3.3-.7-.5c-.4-.3-.7-.5-.8-.5-.1 0-.3.4-.3.5.2.2 1.6 1.3 1.7 1.3.2 0 .3-.2.4-.3zm1.1-1.2l.2-.2-.8-.8-.8-.8-.2.1c-.1.1-.2.2-.2.2 0 .1 1.5 1.6 1.6 1.6 0 .1.1 0 .2-.1zm.7-.6l.2-.2-.2-.3c-.1-.1-.3-.4-.4-.5l-.2-.3.4.2c.2.1.5.2.7.3l.3.1.2-.2.2-.2-.2-.3c-.7-1-1.1-1.5-1.2-1.5 0 0-.2.1-.3.1l-.2.2.4.5c.2.3.3.5.3.5s-.3-.1-.6-.3l-.6-.3-.2.2c-.2.1-.2.2-.2.3.1.2 1.3 1.7 1.3 1.7 0 .1.2.1.3 0zm15-.7c.3-.4.6-.9.7-.9 0-.1 0-.2-.2-.3l-.2-.2-.4.5-.4.5v-.3c.2-1.2.2-1.1-.1-1.3-.1-.1-.2-.2-.3-.2 0 0-.3.3-.5.6-.9 1.2-.8 1.1-.7 1.3.3.3.3.3.7-.2.2-.3.4-.5.4-.5s0 .3-.1.7l-.1.7.2.2c.1.1.2.2.2.2.2 0 .5-.3.8-.8zm-12.7-.8c.4-.2.7-.4.7-.4s0-.1-.1-.2-.1-.1-.5.1-.4.2-.5.1c-.2-.2-.1-.3.2-.5.3-.2.3-.2.3-.3 0-.1-.1-.2-.1-.2s-.2.1-.4.2c-.3.1-.4.2-.4.1-.1-.2-.1-.3.3-.5s.4-.2.3-.4c0-.1-.1-.2-.2-.2s-1.3.6-1.4.7c0 0 .9 2 1 2 .1-.2.4-.3.8-.5zM27.4 10s-.1-.1-.3-.2l-.3-.1-.3.4c-.2.2-.4.5-.5.6l-.2.2.1-.7c.1-.4.1-.8.1-.8s-.1-.1-.3-.2c-.3-.1-.3-.1-.3 0s-.1.6-.1 1.2l-.1 1.1.3.1.3.1.8-.8c.5-.5.8-.9.8-.9zm-10 1c.1-.2.1-.3-.1-.4-.2-.1-.4 0-.4.3-.1.2.3.4.5.1zm7 0c.2-.2.1-.5-.3-.5-.2 0-.3.4-.1.5.2.1.2.1.4 0zm-.5-1.3c.3-.5.6-1 .6-1 0-.1-.5-.2-.6-.2 0 0-.2.3-.4.7l-.4.8v-.7c0-.4-.1-.7-.1-.8 0-.1-.6-.3-.6-.2 0 0 .3 2.3.3 2.4 0 0 .5.1.6.1 0-.1.3-.5.6-1.1zm-4.7.8c.4-.2.4-.3.3-.8l-.1-.4H19c-.4.1-.4.1-.5.3 0 .2 0 .2.2.2s.2 0 .2.1 0 .2-.2.2c-.1 0-.3 0-.3 0-.3-.1-.5-1.1-.3-1.3.1-.1.4-.1.5 0 .2.3.4.3.6.2.2-.1.2-.1-.1-.4-.2-.2-.2-.2-.6-.2-.8 0-1.1.4-1 1.2 0 .5.3.9.5 1 .3.2.9.1 1.2-.1zm2.4-.2c.1-.1.2-.4.3-.6.1-.7-.1-1.2-.6-1.4-.7-.3-1.4.3-1.4 1.1 0 .4.2.8.5 1 .3.2.9.2 1.2-.1zM8.9 18.3c-.3-.1-.3-.2-.3-.3 0-.1 0-.2.1-.3.2-.2 1 0 1.2.2.1.1.1.2 0 .3-.1.2-.1.2-.4.2-.2.1-.5 0-.6-.1zM20.7 10c-.2-.1-.2-.8-.1-1.1.1-.2.4-.3.6-.2.2.2.2 1.2-.1 1.3-.2.1-.2.1-.4 0zM36.5 32.7s.1-.2.2-.3c.4-.5 1.2-1.7 1.6-2.5 2.2-4.2 2.9-9.2 1.9-13.9-.5-2.5-1.6-5.1-3.1-7.2l-.5-.7h34.3c31.1 0 34.3 0 34.7.1.7.2 1.2.5 1.7 1s.8 1 1 1.7c.1.4.1 1.4.1 9.6s0 9.2-.1 9.6c-.2.7-.5 1.2-1 1.7s-1 .8-1.7 1c-.4.1-3.4.1-34.8.1-18.9-.1-34.3-.2-34.3-.2zm15.5-.8c.2-.1.2-.5 0-.6-.2-.1-.5-.1-.6.1-.1.2-.1.3.1.5.2.1.3.1.5 0zm.7-1.2c.5-.2.8-.7 1-1.3.2-.6.1-2-.1-2.5-.5-1-1.7-1.4-2.6-.9-.7.4-1 1-1.1 2.2 0 1 .1 1.5.4 2 .5.6 1.5.8 2.4.5zm6.3 0c.2-.1.4-.2.5-.3.2-.2.4-.6.5-1l.1-.3h-.3c-.3 0-.3 0-.4.3-.2.8-1.3 1.1-1.9.4-.3-.3-.4-.9-.4-1.8 0-.6.1-.8.2-1.1.2-.4.6-.6 1.1-.6.5 0 .8.2 1 .7.1.4.1.4.5.4h.1v-.2c-.2-1.1-1.2-1.6-2.4-1.3-.3.1-.5.2-.8.5-.5.5-.6 1-.6 2.2 0 .8.1.9.2 1.3.2.4.6.8.9.9.5.1 1.3.1 1.7-.1zm4.5 0c.5-.2.8-.7 1-1.3.2-.6.1-2-.1-2.5-.5-1-1.7-1.4-2.6-.9-.7.4-1 1-1.1 2.2 0 1 .1 1.5.4 2 .6.6 1.6.8 2.4.5zm9.9 0c.6-.3.6-.4.6-1.4v-.9h-1.8v.6h1v.5c0 .5 0 .5-.2.6-.6.3-1.3.2-1.7-.3-.3-.4-.5-.9-.4-1.8.1-1.2.4-1.7 1.3-1.7.5 0 .9.2 1 .6.1.3.2.3.5.3.4 0 .4-.1.2-.5-.3-.7-.8-1-1.7-1-.5 0-.7 0-1 .2-.7.4-1 1.2-1 2.5 0 .6.1.8.2 1.2.2.5.6.9 1.1 1 .5.3 1.6.2 1.9.1zm14.7 0c.4-.2.7-.5.9-.8.1-.3.1-.5.1-1.6s0-1.3.1-1.3.3-.1.5-.2c.4-.2.6-.6.6-1.1 0-.3 0-.3-.3-.3s-.3 0-.3.3c-.1.3-.3.7-.5.7-.1 0-.1-.1-.1-.3v-.3h-.6v1.8c0 2 0 2.3-.4 2.5-.6.3-1.2.2-1.5-.3-.2-.3-.2-.3-.2-2.1v-1.9h-.6v1.9c0 1.7 0 1.9.1 2.2.2.3.5.7.9.8.2.2 1 .2 1.3 0zm4.7.1c.4-.1.8-.5 1.1-1 .2-.3.2-.5.2-1.3 0-.7 0-1-.1-1.3-.1-.2-.1-.4-.1-.4s.1-.1.3-.2c.3-.2.5-.5.5-.9l.1-.3h-.3c-.3 0-.3 0-.4.3-.1.2-.2.4-.3.5-.2.1-.2.1-.5-.1-.8-.6-1.9-.4-2.5.3-.4.5-.5.9-.5 1.9 0 .8 0 1 .2 1.4.3.9 1.3 1.3 2.3 1.1zm10.3-.1c.6-.3.6-.4.6-1.4v-.9h-1.8v.6h1v.5c0 .5 0 .5-.2.6-.6.3-1.3.2-1.7-.3-.3-.4-.5-.9-.4-1.8.1-1.2.4-1.7 1.3-1.7.5 0 .9.2 1 .6.1.3.2.3.5.3.4 0 .4-.1.2-.5-.3-.7-.8-1-1.7-1-.5 0-.7 0-1 .2-.7.4-1 1.2-1 2.5 0 .6.1.8.2 1.2.2.5.6.9 1.1 1 .4.3 1.5.2 1.9.1zm-54.7-.1c.6-.3.9-1 .7-1.6-.1-.3-.5-.8-.7-.8-.1 0-.1 0 .1-.1.4-.2.5-.5.5-1 0-.6-.2-.9-.6-1.1-.2-.1-.5-.2-1.4-.2h-1.1v5H47c.9 0 1-.1 1.4-.2zm17.9-1.7v-1.8l1.2 1.8 1.2 1.8h.8v-5h-.8v3.6l-1.2-1.8-1.2-1.8h-.8v5h.6l.2-1.8zm12.2-.3v-2.2h1.6v-.6h-3.8v.6h1.6v4.4h.6v-2.2zm3 1v-1.1h2.4v2.2h.6v-5h-.6v2h-2.4v-2h-.6v5h.6v-1.1zm14.3-.7v-1.8l1.2 1.8 1.2 1.8h.8v-5h-.6v3.6L97 27.7l-1.2-1.8H95v5h.6l.2-2zm-44.2-3.7l.2-.3.3.3c.2.2.4.3.5.3.1 0 .2 0 .2 0s-.2-.2-.4-.5c-.5-.6-.7-.6-1.2-.1-.5.6-.5.6-.2.6s.4 0 .6-.3zm10.8 0l.2-.3.3.3c.2.2.4.3.5.3.1 0 .2 0 .2 0s-.2-.2-.4-.5c-.5-.6-.7-.6-1.2-.1-.5.6-.5.6-.2.6.4 0 .4 0 .6-.3zm41.2-2V23H45.7v.6h57.8v-.4zm-17.2-2.4c.5-.2.9-.7 1.1-1.2.2-.4.2-.6.2-2.3v-1.9h-2.6v1.4h.8V18c0 1.4-.1 1.6-.8 1.6-.4 0-.8-.1-.9-.4-.1-.1-.1-1.1-.1-3.2v-3l.2-.2c.3-.3.7-.3 1.2-.1.3.1.3.2.4 1.1v.8h1.8v-.5c0-.6-.1-1.4-.3-1.8-.2-.4-.6-.7-1-.9-.3-.2-.5-.2-1.4-.2-.9 0-1.1 0-1.4.2-.5.2-1 .7-1.1 1.2-.1.3-.1.6-.1 3.6 0 3.2 0 3.2.2 3.6.5 1 1.2 1.4 2.7 1.3.5-.1.7-.1 1.1-.3zm-36.6 0c.6-.2 1.1-.7 1.3-1.3.1-.4.1-.7.1-3.5 0-3.5 0-3.6-.6-4.2-.6-.6-1-.7-3.2-.7h-1.8v4.4H45v1.2h.6V21h1.8c1.7 0 1.9-.1 2.4-.2zm4-.7l.1-.9h2.2l.1.7c.1.4.1.8.2.9 0 .2.1.2 1 .2s.9 0 .9-.2c0-.1-.4-2.3-.9-4.9l-.9-4.7h-2.8l-.1.4c-.2.8-1.8 9.4-1.8 9.4s.4 0 .9 0h.9l.2-.9zm12.1.7c.6-.2 1.1-.7 1.3-1.3.1-.4.1-.7.1-3.5 0-3.5 0-3.6-.6-4.2-.6-.6-1-.7-3.2-.7h-1.8v4.4h-.6v1.2h.6V21h1.8c1.7 0 2-.1 2.4-.2zm4-.7l.2-.9h1.1c.6 0 1.1 0 1.1 0 0 .1.2 1.4.3 1.6 0 .1.2.1 1 .1.7 0 .9 0 .9-.1s-.4-2.3-.9-4.9l-.9-4.8h-1.4c-1.4 0-1.4 0-1.4.2 0 .1-.4 2.2-.9 4.7s-.9 4.6-.9 4.7v.2h1.8v-.8zm7-2.5v-3.4l1.1 3.4 1.1 3.4h2v-9.8h-1.6v5.6l-.9-2.8-.9-2.8h-2.4V21h1.6v-3.4zm16.4 1.9V18l.2-.4.2-.4.9 1.9.9 1.9h1c.5 0 1 0 1 0s-.6-1.2-1.2-2.7c-.7-1.5-1.2-2.7-1.2-2.7s.5-1 1.1-2.1c.6-1.1 1.2-2.1 1.2-2.1l.1-.2h-1.8l-1.1 2-1.1 2v-4h-2V21h2v-1.5zm8.6-.2v-1.6l1.1-3.2 1.1-3.2h-.9c-.5 0-.9 0-.9 0s-.3 1-.7 2.1-.7 2.1-.7 2.1-.2-.4-.3-.9c-.2-.5-.5-1.5-.7-2.2l-.4-1.2h-1c-.5 0-1 0-1 .1 0 0 .5 1.5 1.1 3.2l1.1 3.2V21h2v-1.7zm-48-8.8c.3-.3.6-.2 1.3 0 .6.2 1 .2 1.5 0 .3-.1.7-.6.7-.8 0 0-.2-.2-.4-.3l-.4-.2-.2.2c-.3.2-.5.2-1.2 0-.6-.2-1.1-.2-1.5 0-.3.2-.7.7-.6.8.1.1.8.5.8.5-.2 0-.1-.1 0-.2zm18.1.1c.6-.2 1.1-.8 1.1-1.4 0-.2 0-.2-.6-.2h-.6l-.1.3c-.1.2-.1.3-.4.3-.5.1-.9 0-1-.3l-.1-.3h-.6c-.6 0-.6 0-.5.6.1.4.4.7.8.9.5.2 1.5.3 2 .1zm29.8-.3c.3-.2.7-.6.9-.8l.4-.3h-1.8l-.5.7c-.3.4-.5.7-.5.8 0 0 .3 0 .6 0h.6l.3-.4zM51.2 30.1c-.4-.2-.6-.7-.6-1.6 0-1.2.2-1.8.9-2 .5-.2 1.1 0 1.5.6.2.3.2.4.2 1.3 0 1.1-.1 1.4-.6 1.8-.5.1-1.1.1-1.4-.1zM62 30.1c-.4-.2-.6-.7-.6-1.6 0-1.2.2-1.8.9-2 .5-.2 1.1 0 1.5.6.2.3.2.4.2 1.3 0 1.1-.1 1.4-.6 1.8-.4.1-1 .1-1.4-.1zM91.5 30.1c-.1-.1-.3-.3-.4-.5-.2-.3-.2-.5-.2-1.3s0-.9.2-1.2c.3-.5.5-.7 1.1-.7.3 0 .5 0 .7.2.4.3.5.6.6 1.6 0 1-.1 1.4-.4 1.7-.2.2-.3.2-.7.2-.5.1-.7.1-.9 0zM46.4 29.4v-.9h.7c.8 0 1.1.1 1.2.4 0 .1.1.2.1.3 0 0 0 .2 0 .4-.1.4-.4.5-1.2.6h-.7v-.8zM46.4 27.2v-.7h.7c.4 0 .7 0 .8.1.5.2.5 1 0 1.3-.1.1-.4.1-.8.1h-.6v-.8zM47.5 18.2v-1.4h1v-1.2h-1v-3.1h.7c.7 0 .9.1 1.1.4.1.3.1 5.9 0 6.1-.1.3-.3.4-1.1.4h-.7v-1.2zM54.2 17.6c0-.1.2-1.1.4-2.4L55 13l.4 2.3c.2 1.3.4 2.3.4 2.4 0 0-.4.1-.8.1-.6-.1-.8-.1-.8-.2zM63.6 18.2v-1.4h1v-1.2h-1v-3.1h.7c.7 0 .9.1 1.1.4.1.3.1 5.9 0 6.1-.1.3-.3.4-1.1.4h-.7v-1.2zM70.3 17.7c0-.1.8-4.7.8-4.6 0 .2.8 4.4.8 4.5s-.1.1-.8.1c-.5.1-.8.1-.8 0z" class="st2"/></svg>