<svg id="Layer_1" xmlns="http://www.w3.org/2000/svg" width="218" height="80" viewBox="0 0 218 80"><style>.st0{fill:#0D77C3;} .st1{fill:#DB412C;} .st2{fill:#313032;} .st3{fill:#464342;}</style><path class="st0" d="M39.1 8.2c-1.2-2.1-3.1-3.7-5.4-4.7-1.4-.6-2.9-.9-4.4-.9H12.9c-2 0-3.8.5-5.4 1.4-1.7.9-3.2 2.3-4.2 3.9-1.1 1.8-1.8 3.9-1.8 6.1v21.2c0 3.3 1.4 6.3 3.6 8.3 2 1.9 4.7 3 7.7 3h16.4c2.6 0 5.1-.9 7-2.4 2.7-2.1 4.4-5.3 4.4-8.9V14c0-2.1-.5-4.1-1.5-5.8zm-9.4 14.9v11.1c0 .9-.4 1.7-1 2.3s-1.4.9-2.2.9H15.7c-1 0-1.9-.5-2.5-1.2-.5-.6-.7-1.3-.7-2V15.1c0-.8.3-1.5.7-2 .6-.7 1.5-1.2 2.5-1.2H26.6c.8 0 1.5.3 2 .7.7.6 1.2 1.5 1.2 2.5v8h-.1zM121 4.6c-1.8-1.2-4-1.9-6.4-1.9H98.2c-3.3 0-6.3 1.4-8.4 3.7-1.9 2-3 4.7-3 7.7v21.2c0 3.7 1.7 7 4.5 9 1.9 1.5 4.3 2.3 6.9 2.3h16.4c3.1 0 5.8-1.2 7.9-3.2 2.2-2.1 3.5-5 3.5-8.2V14c0-3.9-2-7.4-5-9.4zm-5.9 29.5c0 1-.4 1.9-1.1 2.5-.6.5-1.3.8-2.1.8H101c-.8 0-1.5-.3-2.1-.7-.7-.6-1.2-1.5-1.2-2.5v-19c0-1.1.5-2 1.3-2.6.5-.4 1.2-.6 1.9-.6h10.9c1 0 1.8.4 2.4 1.1.5.6.8 1.3.8 2.1l.1 18.9zM81.4 2.8H46.3c-.8 0-1.4.6-1.4 1.4v6.1c0 .8.6 1.4 1.4 1.4h12.3v33.1c0 .9.7 1.6 1.6 1.6h7.4c.9 0 1.6-.7 1.6-1.6v-33h12.2c.8 0 1.4-.6 1.4-1.4V4.3c0-.8-.6-1.5-1.4-1.5z"/><g id="XMLID_503_"><path class="st1" d="M158.6 31.2c-10-7.4-14.7-12-14.4-18.4.2-6.4 8.2-9.4 20.2-10.4-12.5-.4-27.3-.2-30 8.3-1.9 6 2.2 12.4 11.6 20.4 8.6 7.4 9 11.7-1.8 15.8C128 53.1 3.8 54.7 3.8 54.7s105 1.5 143.1-4.1c14.5-2.2 24.3-10 11.7-19.4z" id="s_111_"/><path id="XMLID_504_" class="st1" d="M174.8 2.3c-11.5 1.8-18.1 5.4-17.9 11.9.1 3.9 7.7 8 16.1 16.1 8.8 8.5 6.9 21.3-11.1 22.7-41.3 3.3-158.1 1.7-158.1 1.7s134.8 1 152.5-3.8c11.4-3 15.8-13 4.1-21.3-10-7.1-15.2-12.7-13.7-17.9 2.1-7.3 15.2-8.6 28.1-9.4z"/></g><g id="XMLID_434_"><path id="XMLID_501_" class="st2" d="M1.3 72.3l1.8-.2c.1.6.3 1 .7 1.3.2.4.7.5 1.2.5.6 0 1-.1 1.3-.4s.5-.5.5-.9c0-.2-.1-.4-.2-.6s-.3-.3-.7-.4c-.2-.1-.7-.2-1.5-.4-1-.2-1.7-.5-2.1-.9-.6-.5-.8-1.1-.8-1.8 0-.5.1-.9.4-1.3s.6-.7 1.1-.9c.6-.2 1.2-.3 1.9-.3 1.1 0 2 .3 2.6.8s.9 1.2.9 2l-1.8.1c-.1-.5-.2-.8-.5-1s-.6-.3-1.2-.3c-.5 0-1 .1-1.3.3-.2.1-.3.3-.3.6 0 .2.1.4.3.6s.8.4 1.7.6 1.6.4 2 .7c.4.2.8.5 1 .9s.4.9.4 1.5c0 .5-.1 1-.4 1.5-.3.5-.7.8-1.2 1s-1.2.3-2 .3c-1.2 0-2-.3-2.7-.8-.6-.7-1-1.5-1.1-2.5z"/><path id="XMLID_497_" class="st2" d="M11.5 70.7l-1.6-.3c.2-.6.5-1.1.9-1.4s1.1-.5 1.9-.5c.8 0 1.4.1 1.7.3.4.2.6.4.8.7.2.3.2.8.2 1.6v2c0 .6 0 1 .1 1.3l.3.9h-1.7c0-.1-.1-.3-.2-.5 0-.1 0-.2-.1-.2-.3.3-.6.5-1 .7-.3.1-.7.2-1.1.2-.7 0-1.2-.2-1.6-.6-.4-.4-.6-.8-.6-1.4 0-.4.1-.7.3-1s.4-.5.7-.7.8-.3 1.4-.4c.8-.2 1.4-.3 1.7-.4v-.2c0-.3-.1-.6-.2-.7-.2-.1-.5-.2-.9-.2-.3 0-.6.1-.7.2 0 .1-.2.3-.3.6zm2.2-2.8h-1.1L10.9 66h2l.8 1.9zm.2 4.2c-.2.1-.6.2-1.1.3-.5.1-.8.2-1 .3-.2.2-.3.4-.3.6s.1.5.3.6c.2.2.4.3.7.3s.6-.1.9-.3c.2-.2.4-.4.4-.6 0-.1.1-.4.1-.9v-.3z"/><path id="XMLID_495_" class="st2" d="M23.3 75.3h-1.7v-3.4c0-.7 0-1.2-.1-1.4-.1-.2-.2-.4-.4-.5-.2-.1-.4-.2-.6-.2-.3 0-.6.1-.8.2-.2.2-.4.4-.5.7-.1.3-.1.8-.1 1.5v3h-1.7v-6.6H19v1c.6-.7 1.3-1.1 2.2-1.1.4 0 .7.1 1.1.2.3.1.6.3.7.5.2.2.3.5.3.7.1.3.1.7.1 1.2v4.2h-.1z"/><path id="XMLID_493_" class="st2" d="M28.5 68.7h1.6v.9c.6-.7 1.3-1.1 2.1-1.1.4 0 .8.1 1.1.3.3.2.6.4.8.8.3-.4.6-.6.9-.8.3-.2.7-.3 1.1-.3.5 0 .9.1 1.2.3.3.2.6.5.8.9.1.3.2.7.2 1.4v4.2h-1.7v-3.8c0-.7-.1-1.1-.2-1.3-.2-.2-.4-.4-.7-.4-.2 0-.5.1-.7.2s-.4.4-.5.7c-.1.3-.1.7-.1 1.4v3.2h-1.7v-3.6c0-.6 0-1.1-.1-1.2-.1-.2-.2-.3-.3-.4s-.3-.1-.5-.1c-.3 0-.5.1-.7.2s-.4.4-.5.6c-.1.3-.1.7-.1 1.4v3.2h-1.7v-6.7h-.3z"/><path id="XMLID_491_" class="st2" d="M44.3 75.3v-1c-.2.4-.6.6-.9.8-.4.2-.8.3-1.2.3s-.8-.1-1.2-.3c-.4-.2-.6-.5-.8-.8-.2-.4-.2-.8-.2-1.5v-4.2h1.7v3c0 .9 0 1.5.1 1.7s.2.4.4.5.4.2.6.2c.3 0 .6-.1.8-.2.2-.2.4-.4.5-.6s.1-.8.1-1.8v-2.8h1.7v6.6h-1.6v.1z"/><path id="XMLID_488_" class="st2" d="M49 70.7l-1.6-.3c.2-.6.5-1.1.9-1.4s1.1-.5 1.9-.5c.8 0 1.4.1 1.7.3.4.2.6.4.8.7.2.3.2.8.2 1.6v2c0 .6 0 1 .1 1.3l.3.9h-1.7c0-.1-.1-.3-.2-.5 0-.1 0-.2-.1-.2-.3.3-.6.5-1 .7-.3.1-.7.2-1.1.2-.7 0-1.2-.2-1.6-.6-.4-.4-.6-.8-.6-1.4 0-.4.1-.7.3-1s.4-.5.7-.7.8-.3 1.4-.4c.8-.2 1.4-.3 1.7-.4v-.2c0-.3-.1-.6-.2-.7-.2-.1-.5-.2-.9-.2-.3 0-.6.1-.7.2 0 .1-.2.3-.3.6zm2.3 1.4c-.2.1-.6.2-1.1.3-.5.1-.8.2-1 .3-.2.2-.3.4-.3.6s.1.5.3.6c.2.2.4.3.7.3s.6-.1.9-.3c.2-.2.4-.4.4-.6 0-.1.1-.4.1-.9v-.3z"/><path id="XMLID_485_" class="st2" d="M58.2 75.3v-9.1H60v3.3c.5-.6 1.2-.9 1.9-.9.8 0 1.5.3 2 .9s.8 1.4.8 2.5-.3 2-.8 2.6c-.5.6-1.2.9-2 .9-.4 0-.7-.1-1.1-.3-.4-.2-.7-.5-.9-.8v1l-1.7-.1zm1.8-3.5c0 .7.1 1.2.3 1.5.3.5.7.7 1.2.7.4 0 .7-.2 1-.5s.4-.8.4-1.6-.1-1.3-.4-1.6c-.3-.3-.6-.5-1.1-.5-.4 0-.8.2-1 .5-.3.4-.4.9-.4 1.5z"/><path id="XMLID_481_" class="st2" d="M67.4 70.7l-1.6-.3c.2-.6.5-1.1.9-1.4s1.1-.5 1.9-.5 1.4.1 1.7.3c.4.2.6.4.8.7.2.3.2.8.2 1.6v2c0 .6 0 1 .1 1.3l.3.9H70c0-.1-.1-.3-.2-.5 0-.1 0-.2-.1-.2-.3.3-.6.5-1 .7-.3.1-.7.2-1.1.2-.7 0-1.2-.2-1.6-.6s-.6-.8-.6-1.4c0-.4.1-.7.3-1 .2-.3.4-.5.7-.7.3-.2.8-.3 1.4-.4.8-.2 1.4-.3 1.7-.4v-.2c0-.3-.1-.6-.2-.7-.2-.1-.5-.2-.9-.2-.3 0-.6.1-.7.2 0 .1-.2.3-.3.6zm2.3 1.4c-.2.1-.6.2-1.1.3-.5.1-.8.2-1 .3-.2.2-.3.4-.3.6s.1.5.3.6c.2.2.4.3.7.3.3 0 .6-.1.9-.3.2-.2.4-.4.4-.6 0-.1.1-.4.1-.9v-.3zm-1.8-4.2l.9-1.9h2L69 67.9h-1.1z"/><path id="XMLID_479_" class="st2" d="M79.2 75.3h-1.7v-3.4c0-.7 0-1.2-.1-1.4-.1-.2-.2-.4-.4-.5-.2-.1-.4-.2-.6-.2-.3 0-.6.1-.8.2-.2.2-.4.4-.5.7-.1.3-.1.8-.1 1.5v3h-1.7v-6.6h1.6v1c.6-.7 1.3-1.1 2.2-1.1.4 0 .7.1 1.1.2.3.1.6.3.7.5.2.2.3.5.3.7.1.3.1.7.1 1.2l-.1 4.2z"/><path id="XMLID_477_" class="st2" d="M84.1 72.5v-1.2h4v1.2h-4z"/><path id="XMLID_475_" class="st2" d="M137.9 72.6v-1.2h4v1.2h-4z"/><path id="XMLID_473_" class="st2" d="M94.3 75.3v-7.6h-2.7v-1.5h7.2v1.5h-2.7v7.6h-1.8z"/><path id="XMLID_470_" class="st2" d="M99.8 67.8v-1.6h1.7v1.6h-1.7zm0 7.5v-6.6h1.7v6.6h-1.7z"/><path id="XMLID_468_" class="st2" d="M109.4 75.3h-1.7v-3.4c0-.7 0-1.2-.1-1.4-.1-.2-.2-.4-.4-.5-.2-.1-.4-.2-.6-.2-.3 0-.6.1-.8.2-.2.2-.4.4-.5.7-.1.3-.1.8-.1 1.5v3h-1.7v-6.6h1.6v1c.6-.7 1.3-1.1 2.2-1.1.4 0 .7.1 1.1.2.3.1.6.3.7.5.2.2.3.5.3.7.1.3.1.7.1 1.2l-.1 4.2z"/><path id="XMLID_466_" class="st2" d="M117.7 68.7v1.4h-1.2v3.6c0 .1.1.2.2.2.1.1.2.1.3.1.2 0 .4-.1.7-.2l.1 1.4c-.4.2-.9.3-1.4.3-.3 0-.6-.1-.9-.2s-.4-.2-.6-.4c-.1-.2-.2-.4-.2-.7 0-.2-.1-.6-.1-1.2v-2.9h-.8v-1.4h.8v-1.3l1.8-1v2.3h1.3z"/><path id="XMLID_463_" class="st2" d="M125.5 68.7h1.7v1.2c0 .5 0 .9-.1 1.2-.1.3-.3.5-.5.8-.4.4-.9.6-1.7.7v2.6h-1.6v-1c-.5.8-1.2 1.1-2.2 1.1s-1.6-.4-2-1.1c-.2-.4-.2-.8-.2-1.5v-4.2h1.7v3c0 .9 0 1.4.1 1.7 0 .2.2.4.3.5.2.1.4.2.6.2.3 0 .6-.1.8-.2.2-.2.4-.4.5-.6s.1-.8.1-1.8v-2.8h1.7v3.2c.6-.1 1-.3 1.2-.6.1-.2.2-.5.2-.9h-.8v-1.5h.2zm-4.5-.8l.9-1.9h2l-1.7 1.9H121z"/><path id="XMLID_461_" class="st2" d="M133.9 70.6l-1.7.3c-.1-.3-.2-.6-.4-.8-.2-.2-.5-.3-.8-.3-.4 0-.8.2-1 .5-.3.3-.4.8-.4 1.5 0 .8.1 1.3.4 1.7.3.3.6.5 1.1.5.3 0 .6-.1.8-.3.2-.2.4-.5.4-1l1.7.3c-.2.8-.5 1.4-1 1.8s-1.2.6-2 .6c-1 0-1.7-.3-2.3-.9s-.9-1.5-.9-2.5c0-1.1.3-1.9.9-2.5s1.4-.9 2.3-.9c.8 0 1.4.2 1.9.5.4.3.8.8 1 1.5z"/><path id="XMLID_458_" class="st2" d="M146.5 66.2h3.4c.8 0 1.3.1 1.7.2.5.2 1 .4 1.4.8s.7.9.9 1.5.3 1.3.3 2.2c0 .8-.1 1.4-.3 1.9-.2.7-.6 1.2-1 1.6-.3.3-.8.6-1.3.7-.4.1-.9.2-1.6.2h-3.5v-9.1zm1.9 1.5v6h1.4c.5 0 .9 0 1.1-.1.3-.1.5-.2.7-.4.2-.2.4-.5.5-.9s.2-1 .2-1.7-.1-1.2-.2-1.6c-.1-.4-.3-.7-.5-.9-.2-.2-.5-.4-.9-.4-.3-.1-.8-.1-1.5-.1l-.8.1z"/><path id="XMLID_454_" class="st2" d="M155.7 67.8v-1.6h1.7v1.6h-1.7zm0 7.5v-6.6h1.7v6.6h-1.7zm0 2.5V76h1.7v1.7h-1.7v.1z"/><path id="XMLID_452_" class="st2" d="M165 70.6l-1.7.3c-.1-.3-.2-.6-.4-.8-.2-.2-.5-.3-.8-.3-.4 0-.8.2-1 .5-.3.3-.4.8-.4 1.5 0 .8.1 1.3.4 1.7.3.3.6.5 1.1.5.3 0 .6-.1.8-.3.2-.2.4-.5.4-1l1.7.3c-.2.8-.5 1.4-1 1.8s-1.2.6-2 .6c-1 0-1.7-.3-2.3-.9s-.9-1.5-.9-2.5c0-1.1.3-1.9.9-2.5.6-.6 1.4-.9 2.3-.9.8 0 1.4.2 1.9.5s.8.8 1 1.5z"/><path id="XMLID_450_" class="st2" d="M168.1 66.2v3.4c.6-.7 1.2-1 2-1 .4 0 .8.1 1.1.2s.6.3.7.6c.2.2.3.5.3.8.1.3.1.7.1 1.3v3.9h-1.7v-3.5c0-.7 0-1.1-.1-1.3-.1-.2-.2-.3-.4-.4s-.4-.2-.6-.2c-.3 0-.5.1-.8.2-.2.1-.4.4-.5.6-.1.3-.2.7-.2 1.3v3.3h-1.7v-9.1h1.8v-.1z"/><path id="XMLID_448_" class="st2" d="M179.5 75.3l-2.7-6.6h1.8l1.2 3.4.4 1.1c.1-.3.2-.5.2-.6.1-.2.1-.4.2-.6l1.3-3.4h1.8l-2.6 6.6-1.6.1z"/><path id="XMLID_445_" class="st2" d="M189.1 75.3v-1c-.2.4-.6.6-.9.8-.4.2-.8.3-1.2.3s-.8-.1-1.2-.3c-.4-.2-.6-.5-.8-.8-.2-.4-.2-.8-.2-1.5v-4.2h1.7v3c0 .9 0 1.5.1 1.7s.2.4.4.5.4.2.6.2c.3 0 .6-.1.8-.2s.4-.4.5-.6.1-.8.1-1.8v-2.8h1.7v6.6h-1.6v.1zm-2.4 2.5V76h1.7v1.7h-1.7v.1z"/><path id="XMLID_441_" class="st2" d="M195.6 71.9c0-.6.1-1.1.4-1.7.3-.5.7-1 1.2-1.2.5-.3 1.1-.4 1.8-.4 1 0 1.8.3 2.5 1 .6.6 1 1.5 1 2.5s-.3 1.8-1 2.5c-.6.7-1.5 1-2.4 1-.6 0-1.2-.1-1.7-.4s-1-.7-1.3-1.2c-.3-.7-.5-1.4-.5-2.1zm1.3-4.1l1.3-1.8h1.6l1.3 1.8h-1.4l-.7-.9-.7.9h-1.4zm.5 4.2c0 .7.2 1.2.5 1.5s.7.5 1.1.5c.5 0 .8-.2 1.1-.5s.5-.9.5-1.5-.2-1.1-.5-1.5c-.3-.3-.7-.5-1.1-.5-.5 0-.8.2-1.1.5-.3.3-.5.8-.5 1.5z"/><path id="XMLID_439_" class="st2" d="M210.4 68.7v1.4h-1.2v3.6c0 .1.1.2.2.2.1.1.2.1.3.1.2 0 .4-.1.7-.2l.1 1.4c-.4.2-.9.3-1.4.3-.3 0-.6-.1-.9-.2-.3-.1-.4-.2-.6-.4-.1-.2-.2-.4-.2-.7 0-.2-.1-.6-.1-1.2v-2.9h-.8v-1.4h.8v-1.3l1.8-1v2.3h1.3z"/><path id="XMLID_435_" class="st2" d="M211.2 71.9c0-.6.1-1.1.4-1.7.3-.5.7-1 1.2-1.2.5-.3 1.1-.4 1.8-.4 1 0 1.8.3 2.5 1 .6.6 1 1.5 1 2.5s-.3 1.8-1 2.5c-.6.7-1.5 1-2.4 1-.6 0-1.2-.1-1.7-.4s-1-.7-1.3-1.2c-.4-.7-.5-1.4-.5-2.1zm1.3-4.1l1.3-1.8h1.6l1.3 1.8h-1.4l-.7-.9-.7.9h-1.4zm.5 4.2c0 .7.2 1.2.5 1.5s.7.5 1.1.5c.5 0 .8-.2 1.1-.5s.5-.9.5-1.5-.2-1.1-.5-1.5c-.3-.3-.7-.5-1.1-.5-.5 0-.8.2-1.1.5-.4.3-.5.8-.5 1.5z"/></g><g id="XMLID_21_"><path id="XMLID_432_" class="st3" d="M180.8 55.1v-3.8h3.8v3.8h-3.8z"/><path id="XMLID_430_" class="st3" d="M193 55.1l-5.9-14.5h4l2.7 7.4.8 2.5c.2-.6.3-1 .4-1.2.1-.4.3-.8.4-1.2l2.8-7.4h4l-5.8 14.5-3.4-.1z"/><path id="XMLID_428_" class="st3" d="M217.8 55.1H214v-7.4c0-1.6-.1-2.6-.2-3-.2-.5-.4-.8-.8-1.1-.4-.3-.8-.4-1.3-.4-.7 0-1.3.2-1.8.5-.5.4-.9.8-1.1 1.5-.2.6-.3 1.7-.3 3.3v6.6h-3.8V40.5h3.6v2.1c1.3-1.6 2.9-2.5 4.8-2.5.8 0 1.6.2 2.3.5s1.2.7 1.6 1.2c.4.5.6 1 .8 1.6.1.6.2 1.5.2 2.6v9.1h-.2z"/></g></svg>